<svg width="169" height="66" viewBox="0 0 169 66" fill="none" xmlns="http://www.w3.org/2000/svg">
<path d="M22.6937 50.7935C18.2927 50.7935 14.463 49.9471 11.2045 48.2544C7.94603 46.5617 5.41754 44.012 3.61904 40.6055C1.8417 37.1989 0.953026 32.946 0.953026 27.8467C0.953026 19.7428 2.93138 13.702 6.88808 9.72412C10.8448 5.7251 16.3567 3.72559 23.4237 3.72559C30.0465 3.72559 35.2833 5.68278 39.1342 9.59717C42.9851 13.4904 44.9105 19.2668 44.9105 26.9263C44.9105 32.3429 44.0113 36.818 42.2128 40.3516C40.4143 43.8639 37.8541 46.4876 34.5321 48.2227C31.2102 49.9365 27.2641 50.7935 22.6937 50.7935ZM22.8842 42.2241C26.6928 42.2241 29.5175 40.8594 31.3583 38.1299C33.1991 35.4004 34.1195 31.8563 34.1195 27.4976C34.1195 22.4406 33.252 18.6426 31.517 16.1035C29.782 13.5645 26.989 12.2949 23.1381 12.2949C15.5421 12.2949 11.744 17.299 11.744 27.3071C11.744 31.7716 12.6539 35.3792 14.4735 38.1299C16.3144 40.8594 19.1179 42.2241 22.8842 42.2241ZM52.5734 6.83594C52.5734 6.56087 52.6581 6.31755 52.8273 6.10596C52.9966 5.89437 53.2188 5.6193 53.4938 5.28076C54.0863 4.60368 54.774 3.89486 55.5568 3.1543C56.3397 2.39258 57.1332 1.6626 57.9372 0.964355C58.445 0.562337 58.8259 0.361328 59.0798 0.361328C59.3337 0.361328 59.7251 0.562337 60.2541 0.964355C61.968 2.44548 63.4279 3.88428 64.634 5.28076C64.909 5.59814 65.1312 5.87321 65.3005 6.10596C65.4909 6.31755 65.5861 6.56087 65.5861 6.83594C65.5861 7.111 65.4909 7.35433 65.3005 7.56592C65.1312 7.77751 64.8985 8.06315 64.6022 8.42285C64.031 9.07878 63.3645 9.7876 62.6027 10.5493C61.841 11.2899 61.0581 11.9987 60.2541 12.6758C59.9579 12.9297 59.7251 13.099 59.5559 13.1836C59.3866 13.2471 59.2279 13.2788 59.0798 13.2788C58.9317 13.2788 58.773 13.2471 58.6037 13.1836C58.4556 13.099 58.2123 12.9297 57.8737 12.6758C57.0274 11.9987 56.2339 11.2899 55.4934 10.5493C54.7528 9.7876 54.0863 9.05762 53.4938 8.35938C53.2188 8.02083 52.9966 7.75635 52.8273 7.56592C52.6581 7.35433 52.5734 7.111 52.5734 6.83594ZM64.0627 48.3179C64.0627 48.9526 63.9252 49.397 63.6501 49.6509C63.3962 49.8836 62.9519 50 62.3171 50H55.779C55.1442 50 54.6893 49.8836 54.4143 49.6509C54.1604 49.397 54.0334 48.9526 54.0334 48.3179V19.1821C54.0334 18.5474 54.1604 18.1136 54.4143 17.8809C54.6893 17.627 55.1442 17.5 55.779 17.5H62.3171C62.9519 17.5 63.3962 17.627 63.6501 17.8809C63.9252 18.1136 64.0627 18.5474 64.0627 19.1821V48.3179ZM73.1855 6.83594C73.1855 6.56087 73.2702 6.31755 73.4395 6.10596C73.6087 5.89437 73.8309 5.6193 74.106 5.28076C74.6984 4.60368 75.3861 3.89486 76.1689 3.1543C76.9518 2.39258 77.7453 1.6626 78.5493 0.964355C79.0571 0.562337 79.438 0.361328 79.6919 0.361328C79.9458 0.361328 80.3372 0.562337 80.8662 0.964355C82.5801 2.44548 84.04 3.88428 85.2461 5.28076C85.5212 5.59814 85.7433 5.87321 85.9126 6.10596C86.103 6.31755 86.1982 6.56087 86.1982 6.83594C86.1982 7.111 86.103 7.35433 85.9126 7.56592C85.7433 7.77751 85.5106 8.06315 85.2144 8.42285C84.6431 9.07878 83.9766 9.7876 83.2148 10.5493C82.4531 11.2899 81.6702 11.9987 80.8662 12.6758C80.57 12.9297 80.3372 13.099 80.168 13.1836C79.9987 13.2471 79.84 13.2788 79.6919 13.2788C79.5438 13.2788 79.3851 13.2471 79.2158 13.1836C79.0677 13.099 78.8244 12.9297 78.4858 12.6758C77.6395 11.9987 76.846 11.2899 76.1055 10.5493C75.3649 9.7876 74.6984 9.05762 74.106 8.35938C73.8309 8.02083 73.6087 7.75635 73.4395 7.56592C73.2702 7.35433 73.1855 7.111 73.1855 6.83594ZM84.6748 48.3179C84.6748 48.9526 84.5373 49.397 84.2622 49.6509C84.0083 49.8836 83.564 50 82.9292 50H76.3911C75.7563 50 75.3014 49.8836 75.0264 49.6509C74.7725 49.397 74.6455 48.9526 74.6455 48.3179V19.1821C74.6455 18.5474 74.7725 18.1136 75.0264 17.8809C75.3014 17.627 75.7563 17.5 76.3911 17.5H82.9292C83.564 17.5 84.0083 17.627 84.2622 17.8809C84.5373 18.1136 84.6748 18.5474 84.6748 19.1821V48.3179ZM126.679 29.7827V48.3179C126.679 48.9526 126.541 49.397 126.266 49.6509C126.012 49.8836 125.568 50 124.933 50H118.395C117.76 50 117.305 49.8836 117.03 49.6509C116.776 49.397 116.649 48.9526 116.649 48.3179V31.4331C116.649 29.1268 116.163 27.4447 115.189 26.3867C114.216 25.3288 112.894 24.7998 111.222 24.7998C109.55 24.7998 108.26 25.1595 107.35 25.8789C106.461 26.5983 105.774 27.5081 105.287 28.6084V48.3179C105.287 48.9526 105.149 49.397 104.874 49.6509C104.62 49.8836 104.176 50 103.541 50H97.0032C96.3685 50 95.9135 49.8836 95.6385 49.6509C95.3846 49.397 95.2576 48.9526 95.2576 48.3179V21.7212C95.2576 21.2134 95.3634 20.8219 95.575 20.5469C96.0193 19.9544 96.5483 19.3514 97.1619 18.7378C97.7967 18.1242 98.569 17.4683 99.4788 16.77C99.7539 16.5584 100.018 16.4526 100.272 16.4526C100.505 16.4526 100.769 16.5584 101.066 16.77C101.954 17.4683 102.716 18.1348 103.351 18.7695C103.986 19.4043 104.546 20.0602 105.033 20.7373H105.192C105.551 20.2718 106.091 19.7323 106.81 19.1187C107.53 18.4839 108.535 17.9232 109.825 17.4365C111.137 16.9499 112.809 16.7065 114.84 16.7065C116.829 16.7065 118.723 17.1086 120.521 17.9126C122.32 18.7166 123.79 20.0708 124.933 21.9751C126.097 23.8794 126.679 26.4819 126.679 29.7827ZM168.619 20.5469V46.2866C168.619 52.465 166.852 57.1729 163.318 60.4102C159.806 63.6475 154.982 65.2661 148.846 65.2661C146.307 65.2661 144.297 65.0757 142.816 64.6948C141.334 64.3351 140.213 63.986 139.451 63.6475C138.965 63.4147 138.647 63.1714 138.499 62.9175C138.288 62.5789 138.044 62.0817 137.769 61.4258C137.515 60.7699 137.272 60.0505 137.039 59.2676C136.976 58.9714 136.965 58.7492 137.007 58.6011C137.092 58.3895 137.251 58.1673 137.483 57.9346C137.864 57.5537 138.404 57.1094 139.102 56.6016C139.822 56.0938 140.372 55.7658 140.753 55.6177C141.155 55.4696 141.525 55.4907 141.863 55.6812C142.414 55.9774 143.196 56.3053 144.212 56.665C145.249 57.0459 146.698 57.2363 148.56 57.2363C151.522 57.2363 153.934 56.4746 155.796 54.9512C157.658 53.4277 158.589 51.0791 158.589 47.9053V46.7627H158.462C157.997 47.3551 157.394 47.9582 156.653 48.5718C155.913 49.1854 154.95 49.7038 153.765 50.127C152.601 50.5501 151.099 50.7617 149.258 50.7617C146.063 50.7617 143.44 50.0741 141.387 48.6987C139.356 47.3022 137.854 45.3874 136.88 42.9541C135.928 40.5208 135.452 37.749 135.452 34.6387C135.452 31.2321 136.013 28.1746 137.134 25.4663C138.256 22.758 140.139 20.6209 142.784 19.0552C145.429 17.4683 149.047 16.6748 153.638 16.6748C156.389 16.6748 158.695 16.8758 160.557 17.2778C162.44 17.6799 164.017 18.1771 165.286 18.7695C166.556 19.362 167.667 19.9544 168.619 20.5469ZM153.289 24.3555C150.835 24.3555 148.962 25.1807 147.671 26.8311C146.381 28.4814 145.735 31.0417 145.735 34.5117C145.735 39.9495 147.978 42.6685 152.464 42.6685C154.22 42.6685 155.564 42.3088 156.495 41.5894C157.426 40.87 158.124 39.9601 158.589 38.8599V25.752C158.124 25.4134 157.468 25.096 156.622 24.7998C155.775 24.5036 154.664 24.3555 153.289 24.3555Z" fill="#7B26E9"/>
</svg>
